#!OML:ASF I:\Actors\actors\Patient Classification 2\Patient 1\Session 1\actor1.ASF
:FULLY-SPECIFIED
:DEGREES
170
root -0.565527 18.6992 5.48359 0.0112715 -2.81761 -3.84904
lowerback 6.75913 0.507312 -1.39404
upperback 1.30035 0.582935 0.288993
thorax -2.46451 0.300741 1.02943
lowerneck -15.7082 4.28875 6.45478
upperneck 32.9808 4.29573 0.0121381
head 14.0414 2.66587 -0.40421
rclavicle 4.37326e-015 1.74931e-014
rhumerus -57.1067 9.94694 -92.0911
rradius 66.1443
rwrist 5.42684
rhand -7.91485 -35.6244
rfingers 7.12502
rthumb 17.9908 -64.8123
lclavicle 4.37326e-015 1.74931e-014
lhumerus -28.2856 -8.92059 87.9063
lradius 101.367
lwrist 81.3631
lhand -8.13129 -18.5198
lfingers 7.12502
lthumb 17.7825 10.6872
rfemur 0 0 0
rtibia 0
rfoot 0 0
rtoes 0
lfemur -5.00244 -4.61236 -10.9467
ltibia 23.8825
lfoot -22.9278 12.2018
ltoes -54.7018
171
root -0.564507 18.6981 5.49221 -0.00451443 -2.67845 -3.8402
lowerback 6.62228 0.568434 -1.17798
upperback 1.05549 0.679315 0.245071
thorax -2.64036 0.349374 0.854217
lowerneck -15.6037 4.19581 6.52993
upperneck 33.3277 4.19697 -0.121908
head 14.1749 2.62057 -0.486311
rclavicle 1.37161e-014 -7.95139e-016
rhumerus -57.8805 10.4984 -92.9622
rradius 68.4119
rwrist 5.86261
rhand -8.12428 -35.4329
rfingers 7.12502
rthumb 17.7893 -64.6392
lclavicle 1.37161e-014 -7.95139e-016
lhumerus -28.9001 -8.44696 89.332
lradius 100.832
lwrist 82.4517
lhand -8.02262 -18.3522
lfingers 7.12502
lthumb 17.8871 10.8452
rfemur 0 0 0
rtibia 0
rfoot 0 0
rtoes 0
lfemur -4.98667 -4.6746 -10.955
ltibia 23.8528
lfoot -22.9091 12.1405
ltoes -54.7272
172
root -0.563134 18.6969 5.49537 -0.0773554 -2.59785 -3.76064
lowerback 6.59698 0.644268 -1.05076
upperback 0.815015 0.787005 0.184052
thorax -2.87427 0.403833 0.70911
lowerneck -15.431 4.1131 6.60356
upperneck 33.5819 4.14256 -0.320648
head 14.2552 2.58485 -0.589778
rclavicle -4.42296e-015 7.95139e-016
rhumerus -58.5 11.1877 -93.8791
rradius 70.7863
rwrist 6.90782
rhand -8.46452 -35.5659
rfingers 7.12502
rthumb 17.4618 -64.8016
lclavicle -4.42296e-015 7.95139e-016
lhumerus -29.4756 -8.06881 90.6902
lradius 100.337
lwrist 82.8721
lhand -8.136 -18.4165
lfingers 7.12502
lthumb 17.778 10.7908
rfemur 0 0 0
rtibia 0
rfoot 0 0
rtoes 0
lfemur -4.90958 -4.75398 -11.054
ltibia 23.823
lfoot -22.9301 12.1427
ltoes -54.7079
173
root -0.560842 18.6932 5.50191 -0.257903 -2.51166 -3.69034
lowerback 6.13488 0.631243 -1.11494
upperback 0.972822 0.773163 0.25023
thorax -2.45485 0.39511 0.820342
lowerneck -15.5422 4.12625 6.57747
upperneck 33.6648 4.26778 -0.610692
head 14.3282 2.59625 -0.678888
rclavicle -5.61567e-015 1.43125e-014
rhumerus -58.3682 12.4801 -94.736
rradius 73.1936
rwrist 8.5426
rhand -9.1562 -35.8193
rfingers 7.12502
rthumb 16.7961 -65.1128
lclavicle -5.61567e-015 1.43125e-014
lhumerus -29.5096 -7.47841 91.9283
lradius 99.8766
lwrist 83.1308
lhand -8.22558 -18.7324
lfingers 7.12502
lthumb 17.6918 10.4827
rfemur 0 0 0
rtibia 0
rfoot 0 0
rtoes 0
lfemur -4.68797 -4.81557 -11.1525
ltibia 23.7789
lfoot -22.9469 12.0872
ltoes -54.666
174
root -0.557522 18.6888 5.50997 -0.422173 -2.43306 -3.66753
lowerback 6.30409 0.699509 -0.707421
upperback 0.715115 0.884068 0.0726131
thorax -2.80856 0.448017 0.395701
lowerneck -15.4472 4.01988 6.58184
upperneck 33.9456 4.11291 -0.579662
head 14.4269 2.54002 -0.693375
rclavicle 1.92324e-014 -3.97569e-015
rhumerus -58.6063 13.3128 -95.7957
rradius 75.7654
rwrist 10.757
rhand -10.0208 -35.7022
rfingers 7.12502
rthumb 15.9636 -65.0644
lclavicle 1.92324e-014 -3.97569e-015
lhumerus -30.2102 -7.48229 92.9517
lradius 99.6962
lwrist 83.5414
lhand -8.24067 -18.8689
lfingers 7.12502
lthumb 17.6773 10.3476
rfemur 0 0 0
rtibia 0
rfoot 0 0
rtoes 0
lfemur -4.46898 -4.86496 -11.2016
ltibia 23.7232
lfoot -22.9178 12.0277
ltoes -54.7229
175
root -0.553995 18.6863 5.51677 -0.494762 -2.40095 -3.59929
lowerback 6.15664 0.747424 -0.462192
upperback 0.611849 0.961546 -0.0601236
thorax -2.82718 0.483451 0.115912
lowerneck -15.4643 3.9966 6.57591
upperneck 34.0751 4.08645 -0.586057
head 14.4887 2.52957 -0.698135
rclavicle -6.4605e-016 2.38542e-015
rhumerus -58.3336 14.339 -96.5549
rradius 78.3616
rwrist 13.1795
rhand -10.6327 -34.3761
rfingers 7.12502
rthumb 15.3743 -63.7845
lclavicle -6.4605e-016 2.38542e-015
lhumerus -30.6072 -7.48049 93.8868
lradius 99.7653
lwrist 83.8148
lhand -8.30116 -18.7938
lfingers 7.12502
lthumb 17.619 10.4279
rfemur 0 0 0
rtibia 0
rfoot 0 0
rtoes 0
lfemur -4.34956 -4.9806 -11.3181
ltibia 23.6832
lfoot -22.9187 12.1003
ltoes -54.8454
